<svg xmlns="http://www.w3.org/2000/svg" width="1200" height="630" viewBox="0 0 1200 630">
  <defs>
    <linearGradient id="bg" x1="0%" y1="0%" x2="100%" y2="100%">
      <stop offset="0%" style="stop-color:#005a3c"/>
      <stop offset="50%" style="stop-color:#003d28"/>
      <stop offset="100%" style="stop-color:#001f14"/>
    </linearGradient>
    <linearGradient id="gold" x1="0%" y1="0%" x2="100%" y2="0%">
      <stop offset="0%" style="stop-color:#a07820"/>
      <stop offset="50%" style="stop-color:#f0d060"/>
      <stop offset="100%" style="stop-color:#a07820"/>
    </linearGradient>
    <linearGradient id="goldV" x1="0%" y1="0%" x2="0%" y2="100%">
      <stop offset="0%" style="stop-color:#f0d060"/>
      <stop offset="100%" style="stop-color:#8a6510"/>
    </linearGradient>
    <linearGradient id="feather" x1="0%" y1="0%" x2="100%" y2="100%">
      <stop offset="0%" style="stop-color:#c8a030"/>
      <stop offset="100%" style="stop-color:#7a5010"/>
    </linearGradient>
    <radialGradient id="glow" cx="50%" cy="50%" r="50%">
      <stop offset="0%" style="stop-color:#c9a84c;stop-opacity:0.25"/>
      <stop offset="100%" style="stop-color:#c9a84c;stop-opacity:0"/>
    </radialGradient>
    <filter id="shadow" x="-20%" y="-20%" width="140%" height="140%">
      <feDropShadow dx="0" dy="4" stdDeviation="8" flood-color="#000000" flood-opacity="0.5"/>
    </filter>
    <filter id="glow-filter">
      <feGaussianBlur stdDeviation="3" result="blur"/>
      <feMerge><feMergeNode in="blur"/><feMergeNode in="SourceGraphic"/></feMerge>
    </filter>
  </defs>

  <!-- Fondo principal -->
  <rect width="1200" height="630" fill="url(#bg)"/>

  <!-- Textura sutil de fondo -->
  <rect width="1200" height="630" fill="url(#glow)" opacity="0.4"/>

  <!-- Franjas de la bandera -->
  <rect x="0" y="0" width="22" height="630" fill="#006847"/>
  <rect x="22" y="0" width="22" height="630" fill="#ffffff" opacity="0.9"/>
  <rect x="44" y="0" width="22" height="630" fill="#ce1126"/>
  <rect x="1134" y="0" width="22" height="630" fill="#006847"/>
  <rect x="1156" y="0" width="22" height="630" fill="#ffffff" opacity="0.9"/>
  <rect x="1178" y="0" width="22" height="630" fill="#ce1126"/>

  <!-- Círculos decorativos de fondo -->
  <circle cx="600" cy="200" r="260" fill="url(#glow)" opacity="0.6"/>
  <circle cx="600" cy="200" r="200" fill="none" stroke="#c9a84c" stroke-width="1" opacity="0.15"/>
  <circle cx="600" cy="200" r="240" fill="none" stroke="#c9a84c" stroke-width="0.5" opacity="0.1"/>

  <!-- ===== ÁGUILA DETALLADA ===== -->

  <!-- COLA (plumas traseras) -->
  <path d="M560,340 Q540,380 520,420 Q540,410 560,390 Q570,420 565,450 Q585,430 585,400 Q590,430 592,455 Q605,430 600,400 Q610,430 615,455 Q620,430 615,400 Q625,420 635,450 Q630,420 635,390 Q655,410 660,420 Q645,380 640,340 Z" fill="url(#feather)" filter="url(#shadow)"/>
  <!-- Detalles cola -->
  <path d="M560,340 Q542,378 524,416" fill="none" stroke="#8a6010" stroke-width="1.5" opacity="0.7"/>
  <path d="M575,345 Q568,388 567,446" fill="none" stroke="#8a6010" stroke-width="1.5" opacity="0.7"/>
  <path d="M592,347 Q592,390 592,450" fill="none" stroke="#8a6010" stroke-width="1.5" opacity="0.7"/>
  <path d="M608,347 Q610,390 614,450" fill="none" stroke="#8a6010" stroke-width="1.5" opacity="0.7"/>
  <path d="M624,345 Q630,388 632,446" fill="none" stroke="#8a6010" stroke-width="1.5" opacity="0.7"/>
  <path d="M640,340 Q655,378 674,416" fill="none" stroke="#8a6010" stroke-width="1.5" opacity="0.7"/>

  <!-- ALA IZQUIERDA - capas de plumas -->
  <!-- Capa base ala izq -->
  <path d="M545,220 Q480,180 420,160 Q360,155 310,175 Q290,200 305,230 Q340,220 380,225 Q420,235 460,250 Q500,265 535,280 Z" fill="#b8902a" filter="url(#shadow)"/>
  <!-- Plumas primarias izq -->
  <path d="M535,280 Q490,300 440,330 Q400,355 370,385 Q390,375 420,355 Q450,340 480,325 Q510,312 538,300 Z" fill="#c9a030"/>
  <path d="M535,285 Q485,310 430,345 Q395,368 360,400 Q382,388 415,365 Q448,346 476,330 Q507,316 536,305 Z" fill="#b08020"/>
  <!-- Plumas secundarias izq -->
  <path d="M540,255 Q500,255 460,262 Q420,272 390,285 Q420,278 455,272 Q488,268 522,265 Z" fill="#d4aa40"/>
  <!-- Detalles plumas izq -->
  <path d="M420,160 Q380,172 340,188 Q310,202 305,228" fill="none" stroke="#8a6010" stroke-width="2" opacity="0.5"/>
  <path d="M460,165 Q430,182 405,205 Q385,228 382,255" fill="none" stroke="#8a6010" stroke-width="1.5" opacity="0.4"/>
  <path d="M500,170 Q475,192 458,220 Q444,248 445,272" fill="none" stroke="#8a6010" stroke-width="1.5" opacity="0.4"/>
  <!-- Borde ala izq luminoso -->
  <path d="M545,220 Q480,180 420,160 Q360,155 310,175 Q290,200 305,230" fill="none" stroke="#f0d060" stroke-width="1.5" opacity="0.4"/>

  <!-- ALA DERECHA - capa base -->
  <path d="M655,220 Q720,180 780,160 Q840,155 890,175 Q910,200 895,230 Q860,220 820,225 Q780,235 740,250 Q700,265 665,280 Z" fill="#b8902a" filter="url(#shadow)"/>
  <!-- Plumas primarias der -->
  <path d="M665,280 Q710,300 760,330 Q800,355 830,385 Q810,375 780,355 Q750,340 720,325 Q690,312 662,300 Z" fill="#c9a030"/>
  <path d="M665,285 Q715,310 770,345 Q805,368 840,400 Q818,388 785,365 Q752,346 724,330 Q693,316 664,305 Z" fill="#b08020"/>
  <!-- Plumas secundarias der -->
  <path d="M660,255 Q700,255 740,262 Q780,272 810,285 Q780,278 745,272 Q712,268 678,265 Z" fill="#d4aa40"/>
  <!-- Borde ala der luminoso -->
  <path d="M655,220 Q720,180 780,160 Q840,155 890,175 Q910,200 895,230" fill="none" stroke="#f0d060" stroke-width="1.5" opacity="0.4"/>

  <!-- CUERPO principal -->
  <ellipse cx="600" cy="255" rx="68" ry="90" fill="#c9a030" filter="url(#shadow)"/>
  <!-- Sombra cuerpo -->
  <ellipse cx="608" cy="265" rx="55" ry="75" fill="#a07820" opacity="0.4"/>
  <!-- Plumas pecho -->
  <path d="M560,220 Q580,215 600,218 Q620,215 640,220 Q630,240 600,245 Q570,240 560,220 Z" fill="#d4aa40"/>
  <path d="M558,245 Q578,238 600,242 Q622,238 642,245 Q632,265 600,270 Q568,265 558,245 Z" fill="#c9a030"/>
  <path d="M560,270 Q580,263 600,267 Q620,263 640,270 Q630,290 600,295 Q570,290 560,270 Z" fill="#b89028"/>
  <path d="M564,295 Q582,288 600,292 Q618,288 636,295 Q628,312 600,316 Q572,312 564,295 Z" fill="#a87820"/>

  <!-- CUELLO -->
  <path d="M572,175 Q585,165 600,162 Q615,165 628,175 Q622,195 600,198 Q578,195 572,175 Z" fill="#c9a030"/>

  <!-- CABEZA detallada -->
  <ellipse cx="600" cy="148" rx="42" ry="38" fill="#d4aa40" filter="url(#shadow)"/>
  <!-- Plumas cabeza -->
  <path d="M562,138 Q570,120 580,112 Q590,105 600,108 Q610,105 620,112 Q630,120 638,138 Q618,130 600,128 Q582,130 562,138 Z" fill="#c9a030"/>
  <!-- Cresta -->
  <path d="M590,110 Q595,90 600,82 Q605,90 610,110" fill="#c9a030"/>
  <path d="M583,114 Q583,96 587,85" fill="none" stroke="#b08020" stroke-width="2"/>
  <path d="M617,114 Q617,96 613,85" fill="none" stroke="#b08020" stroke-width="2"/>

  <!-- OJO izquierdo (visible) -->
  <circle cx="614" cy="143" r="11" fill="#1a0f00"/>
  <circle cx="614" cy="143" r="8" fill="#2a1500"/>
  <circle cx="614" cy="143" r="5" fill="#0a0500"/>
  <circle cx="616" cy="141" r="2.5" fill="white" opacity="0.9"/>
  <circle cx="617" cy="141" r="1" fill="white"/>
  <!-- Ceja/línea ojo -->
  <path d="M604,136 Q614,133 622,136" fill="none" stroke="#8a6010" stroke-width="2.5" stroke-linecap="round"/>

  <!-- PICO detallado -->
  <path d="M598,158 Q614,162 628,172 Q622,182 612,185 Q604,184 598,178 Z" fill="#d4960a"/>
  <path d="M598,158 Q614,162 628,172" fill="none" stroke="#a06800" stroke-width="1.5"/>
  <path d="M600,172 Q608,174 616,176" fill="none" stroke="#a06800" stroke-width="1" opacity="0.6"/>
  <!-- Fosa nasal -->
  <ellipse cx="614" cy="165" rx="4" ry="2.5" fill="#a06800" opacity="0.6"/>

  <!-- ESCUDO en el pecho -->
  <ellipse cx="600" cy="268" rx="30" ry="35" fill="#004a31" opacity="0.85"/>
  <ellipse cx="600" cy="268" rx="26" ry="31" fill="#005a3c" opacity="0.7"/>
  <!-- Número 73 en escudo -->
  <text x="600" y="278" text-anchor="middle" font-size="26" fill="#f0d060" font-family="Georgia, serif" font-weight="bold" filter="url(#glow-filter)">73</text>

  <!-- PATAS -->
  <path d="M578,330 Q574,345 570,360" stroke="#b08020" stroke-width="10" stroke-linecap="round" fill="none"/>
  <path d="M622,330 Q626,345 630,360" stroke="#b08020" stroke-width="10" stroke-linecap="round" fill="none"/>
  <!-- Garras izquierda -->
  <path d="M570,360 Q550,372 540,382" stroke="#9a7010" stroke-width="7" stroke-linecap="round" fill="none"/>
  <path d="M570,360 Q558,375 555,388" stroke="#9a7010" stroke-width="7" stroke-linecap="round" fill="none"/>
  <path d="M570,360 Q568,378 570,390" stroke="#9a7010" stroke-width="7" stroke-linecap="round" fill="none"/>
  <path d="M570,360 Q576,376 580,388" stroke="#9a7010" stroke-width="7" stroke-linecap="round" fill="none"/>
  <!-- Garras derecha -->
  <path d="M630,360 Q650,372 660,382" stroke="#9a7010" stroke-width="7" stroke-linecap="round" fill="none"/>
  <path d="M630,360 Q642,375 645,388" stroke="#9a7010" stroke-width="7" stroke-linecap="round" fill="none"/>
  <path d="M630,360 Q632,378 630,390" stroke="#9a7010" stroke-width="7" stroke-linecap="round" fill="none"/>
  <path d="M630,360 Q624,376 620,388" stroke="#9a7010" stroke-width="7" stroke-linecap="round" fill="none"/>

  <!-- SERPIENTE en pico (detalle mexicano) -->
  <path d="M620,172 Q640,165 655,170 Q668,176 670,188 Q660,196 648,192 Q636,188 628,182" fill="none" stroke="#2d6e2d" stroke-width="5" stroke-linecap="round"/>
  <path d="M668,190 Q674,196 672,202 Q668,206 664,202" fill="#2d6e2d"/>

  <!-- ===== LÍNEAS DECORATIVAS ===== -->
  <rect x="80" y="448" width="1040" height="3" rx="1.5" fill="url(#gold)" opacity="0.8"/>
  <rect x="80" y="455" width="1040" height="1" rx="0.5" fill="url(#gold)" opacity="0.3"/>

  <!-- ===== TEXTOS ===== -->
  <!-- Título principal -->
  <text x="600" y="498" text-anchor="middle" font-family="Georgia, 'Times New Roman', serif" font-size="58" font-weight="900" fill="white" filter="url(#shadow)">Guía de Pensión</text>
  <!-- Subtítulo dorado -->
  <text x="600" y="554" text-anchor="middle" font-family="Georgia, 'Times New Roman', serif" font-size="52" font-weight="900" fill="url(#gold)" filter="url(#shadow)">"Ley 73" del IMSS</text>
  <!-- Frase motivacional -->
  <text x="600" y="592" text-anchor="middle" font-family="Georgia, 'Times New Roman', serif" font-size="22" font-style="italic" fill="rgba(255,255,255,0.65)">Tu retiro digno está en tus manos — conócelo y exígelo</text>
  <!-- Autor -->
  <text x="600" y="618" text-anchor="middle" font-family="Georgia, 'Times New Roman', serif" font-size="20" fill="rgba(201,168,76,0.85)">por Carlos Serrano · México 2026</text>

  <!-- Estrellas decorativas esquinas -->
  <text x="100" y="50" font-size="18" fill="#c9a84c" opacity="0.4">✦</text>
  <text x="1080" y="50" font-size="18" fill="#c9a84c" opacity="0.4">✦</text>
  <text x="100" y="610" font-size="18" fill="#c9a84c" opacity="0.4">✦</text>
  <text x="1080" y="610" font-size="18" fill="#c9a84c" opacity="0.4">✦</text>
</svg>
